<?xml version="1.0" encoding="UTF-8" ?>
<!DOCTYPE svg PUBLIC "-//W3C//DTD SVG 1.1//EN" "http://www.w3.org/Graphics/SVG/1.1/DTD/svg11.dtd">
<svg width="591pt" height="590pt" viewBox="0 0 591 590" version="1.1" xmlns="http://www.w3.org/2000/svg">
<g id="#ef6e7eff">
<path fill="#ef6e7e" opacity="1.00" d=" M 247.79 23.94 C 251.88 26.33 252.14 19.42 255.84 19.66 C 258.22 19.85 259.62 21.98 260.59 23.92 C 259.34 26.28 258.14 28.66 256.95 31.05 C 260.91 29.37 265.75 30.03 267.99 34.06 C 265.63 35.24 263.28 36.44 261.00 37.76 C 260.81 40.19 259.45 42.26 258.09 44.20 C 260.46 43.83 263.65 43.59 264.87 46.19 C 265.62 47.89 263.17 48.51 262.28 49.44 C 262.09 52.68 262.70 56.77 259.83 59.05 C 257.88 60.31 255.61 58.97 253.75 58.18 C 251.49 56.92 248.80 55.47 247.92 52.91 C 248.66 49.70 251.86 48.15 254.45 46.63 C 254.14 44.31 255.46 42.51 256.70 40.71 C 254.31 41.11 252.80 43.15 250.95 44.50 C 249.80 43.43 248.83 41.65 250.41 40.45 C 254.91 38.37 260.16 36.45 262.39 31.59 C 257.92 31.76 254.86 35.31 251.07 37.15 C 248.62 38.54 245.61 39.64 244.33 42.34 C 243.23 45.07 243.54 48.10 243.21 50.96 C 241.71 49.34 240.51 47.49 239.80 45.39 C 241.28 41.94 240.60 36.55 245.53 35.96 C 244.30 33.95 243.50 31.72 243.30 29.35 C 244.42 28.91 245.54 28.45 246.66 27.98 C 247.22 30.37 248.23 32.62 249.42 34.76 C 250.66 33.65 251.90 32.54 253.14 31.43 C 250.05 30.05 248.76 26.95 247.79 23.94 M 253.71 30.42 C 255.11 27.37 258.58 22.52 254.77 20.00 C 250.70 22.29 252.79 26.98 253.71 30.42 M 242.69 41.12 C 244.41 39.67 246.07 38.16 247.66 36.57 C 244.74 35.55 242.37 38.36 242.69 41.12 M 250.44 51.50 C 247.98 55.05 253.48 56.41 256.07 56.15 C 259.14 56.72 259.58 53.05 259.44 50.85 C 258.58 49.90 258.57 48.71 258.81 47.51 C 256.29 49.37 253.30 50.32 250.44 51.50 Z" />
<path fill="#ef6e7e" opacity="1.00" d=" M 305.40 20.25 C 308.89 21.67 310.07 25.44 309.80 28.90 C 311.25 29.87 312.79 30.74 314.08 31.95 C 311.93 33.01 309.72 33.94 307.51 34.86 C 307.36 36.32 307.22 37.78 307.11 39.24 C 308.65 40.21 310.63 41.01 311.10 42.99 C 310.17 45.83 306.86 47.23 306.37 50.34 C 309.63 49.81 314.21 49.76 314.92 53.91 C 312.88 55.58 310.27 54.05 307.98 54.06 C 304.54 53.44 301.28 54.96 298.04 55.82 C 296.64 55.64 296.30 53.89 295.40 53.05 C 296.91 51.22 298.90 49.93 301.02 48.91 L 299.67 47.19 C 302.11 48.52 303.62 47.20 304.58 45.08 C 302.80 45.21 301.04 45.38 299.27 45.53 C 299.34 46.16 299.49 47.40 299.57 48.02 C 298.72 46.84 295.58 45.24 297.80 43.76 C 299.77 40.87 305.13 40.69 304.62 36.40 C 302.21 37.78 299.90 39.34 297.68 41.03 C 296.47 40.86 295.27 40.69 294.07 40.53 C 290.92 36.96 294.24 32.85 294.60 28.88 C 296.27 30.95 297.84 33.17 297.89 35.95 C 300.13 34.81 302.44 33.79 304.55 32.40 C 305.93 28.53 305.83 24.29 305.40 20.25 Z" />
<path fill="#ef6e7e" opacity="1.00" d=" M 330.37 39.08 C 329.80 31.29 337.24 24.03 345.02 24.71 C 351.62 25.05 358.00 27.26 364.64 27.27 C 363.74 29.41 363.14 31.79 361.46 33.49 C 361.08 32.09 362.47 29.04 360.11 28.87 C 356.97 28.18 353.76 27.31 350.56 27.31 C 348.74 30.81 347.36 34.51 345.63 38.04 C 348.37 38.54 351.11 39.22 353.91 39.27 C 354.96 38.58 355.95 37.77 356.96 37.01 C 355.85 39.64 355.51 42.82 353.20 44.74 C 353.23 43.83 353.29 42.02 353.32 41.12 C 350.56 40.52 347.79 40.04 345.01 39.62 C 342.98 44.09 340.58 48.37 337.89 52.46 C 344.07 51.66 349.25 55.84 355.24 56.19 C 355.62 54.19 355.95 52.17 356.53 50.21 C 357.50 50.94 359.16 51.44 358.97 52.99 C 358.21 56.65 353.87 58.68 350.46 57.37 C 343.46 55.44 336.43 53.44 329.12 53.30 C 330.84 51.12 334.71 52.69 335.73 49.70 C 340.03 42.11 343.26 33.97 346.96 26.08 C 341.98 25.64 336.29 27.40 333.91 32.13 C 332.32 34.81 333.40 37.91 333.81 40.74 C 332.76 43.16 330.23 40.91 330.37 39.08 Z" />
<path fill="#ef6e7e" opacity="1.00" d=" M 200.41 36.75 C 204.85 38.65 204.10 31.52 208.05 31.41 C 210.14 31.71 212.14 33.00 212.79 35.08 C 212.38 37.72 211.25 40.17 210.48 42.71 C 213.91 40.64 219.18 39.94 221.47 44.03 C 219.66 45.90 217.32 47.17 215.21 48.68 C 215.31 49.23 215.51 50.34 215.61 50.89 C 214.84 52.37 214.09 53.86 213.35 55.35 C 215.94 54.78 219.25 54.18 220.82 56.97 C 220.50 58.38 219.11 59.08 218.18 60.05 C 218.75 63.74 220.14 69.86 215.04 70.80 C 211.28 70.29 207.13 69.00 204.75 65.90 C 204.22 62.43 208.01 60.52 210.01 58.28 C 210.07 56.06 210.50 53.90 211.24 51.81 C 209.41 53.32 208.11 55.48 206.02 56.65 C 204.96 55.70 204.61 54.51 204.94 53.09 C 209.20 50.33 214.50 47.68 215.76 42.28 C 210.59 43.89 207.39 48.62 203.01 51.55 C 202.18 50.83 201.35 50.11 200.52 49.40 C 198.80 47.49 197.29 45.39 196.50 42.91 C 197.40 41.99 198.71 41.76 199.87 41.37 C 201.00 43.32 202.04 45.33 203.11 47.32 C 204.34 46.15 205.58 45.00 206.85 43.86 C 203.63 42.61 201.73 39.79 200.41 36.75 M 207.36 42.37 C 207.81 39.20 210.88 34.26 207.01 32.28 C 202.65 34.38 205.88 39.36 207.36 42.37 M 208.16 62.98 C 206.58 63.71 205.42 65.60 207.13 66.94 C 209.81 67.87 213.80 68.53 215.78 65.98 C 216.22 63.47 215.24 61.01 214.51 58.66 C 212.62 60.41 210.45 61.81 208.16 62.98 Z" />
<path fill="#ef6e7e" opacity="1.00" d=" M 384.31 32.18 C 386.71 32.78 388.82 34.04 390.37 35.98 C 389.60 37.80 388.82 39.62 388.05 41.44 C 390.03 42.49 391.02 44.30 391.16 46.50 C 389.36 46.53 387.56 46.59 385.76 46.68 C 385.25 47.71 384.70 48.71 384.11 49.70 C 386.29 49.50 389.91 51.25 387.94 53.85 C 383.41 54.83 378.55 53.69 373.94 54.71 C 372.79 53.20 370.27 51.81 371.45 49.55 C 374.32 51.34 378.17 50.64 380.86 48.85 C 380.12 48.66 378.64 48.28 377.90 48.09 C 376.07 46.19 374.79 43.87 373.83 41.43 C 374.86 41.91 375.89 42.40 376.92 42.90 C 379.12 42.40 381.56 42.61 383.61 41.64 C 384.90 38.64 386.00 35.28 384.31 32.18 Z" />
<path fill="#ef6e7e" opacity="1.00" d=" M 197.98 49.68 C 200.28 50.77 196.34 52.67 197.89 54.14 C 198.46 53.44 199.59 52.05 200.15 51.35 C 200.54 51.87 200.93 52.39 201.33 52.91 C 197.94 55.71 199.78 60.48 199.58 64.19 C 197.86 62.78 196.45 61.05 195.39 59.10 C 196.18 57.04 196.40 54.85 196.05 52.67 C 196.67 51.65 197.31 50.66 197.98 49.68 Z" />
<path fill="#ef6e7e" opacity="1.00" d=" M 432.74 54.32 C 436.13 54.59 436.81 58.69 436.25 61.42 C 437.19 62.97 437.48 64.57 436.07 65.94 C 433.28 65.33 430.14 65.78 429.06 68.81 C 433.49 67.64 438.08 66.38 441.89 63.75 C 442.17 64.79 443.32 65.80 442.66 66.92 C 442.06 69.35 439.24 69.44 437.28 70.06 C 438.51 71.89 441.77 74.35 438.91 76.24 C 437.05 74.11 434.66 72.60 432.13 71.42 C 430.27 71.96 428.42 72.46 426.57 73.02 C 427.68 73.51 428.80 73.98 429.94 74.44 C 430.44 75.88 431.99 77.41 431.11 78.98 C 428.54 84.28 426.00 90.11 420.70 93.25 C 420.18 91.06 420.25 88.80 420.43 86.58 C 418.49 86.31 416.53 86.28 414.60 86.57 C 414.50 82.36 416.94 78.95 419.24 75.67 C 414.03 77.60 408.76 80.18 403.08 79.94 C 402.67 79.74 401.85 79.34 401.45 79.14 C 409.86 76.88 418.14 73.99 426.05 70.35 C 420.42 68.62 414.54 68.55 408.74 69.18 C 408.07 67.34 408.16 65.46 409.53 63.99 C 413.66 66.21 418.53 65.99 423.00 67.04 C 424.52 67.71 425.50 66.02 426.70 65.43 C 425.65 63.45 424.91 61.34 424.33 59.19 C 426.47 60.35 428.85 60.67 431.26 60.58 C 432.55 58.70 433.76 56.65 432.74 54.32 M 420.96 77.26 C 423.07 78.19 426.19 78.51 425.60 81.66 C 423.49 81.53 421.39 81.29 419.28 81.16 C 418.88 81.89 418.49 82.64 418.10 83.38 C 419.96 83.85 421.71 84.62 422.75 86.34 C 424.84 83.39 426.99 80.42 428.03 76.90 C 425.64 76.61 422.67 74.61 420.96 77.26 Z" />
<path fill="#ef6e7e" opacity="1.00" d=" M 363.97 60.04 C 364.92 58.39 366.76 57.47 368.15 56.20 C 368.47 56.46 369.11 56.97 369.44 57.23 C 370.54 56.44 372.17 55.18 373.08 56.96 C 374.18 59.52 372.83 62.87 374.98 65.04 C 377.39 67.41 380.82 68.19 384.02 68.89 C 383.67 66.99 383.45 64.98 382.41 63.30 C 381.61 61.50 379.93 63.84 378.86 64.15 C 378.13 62.85 377.40 61.56 376.70 60.25 C 377.69 58.64 378.46 56.91 378.99 55.09 C 380.58 56.20 381.74 57.71 382.12 59.66 C 385.19 59.52 388.27 59.20 391.24 58.37 C 393.06 59.31 395.13 60.56 395.27 62.86 C 394.55 63.92 393.80 64.96 393.00 65.96 C 391.30 64.87 389.58 63.82 387.85 62.79 C 389.80 62.42 391.98 62.14 391.59 59.53 C 388.85 60.39 386.13 61.28 383.40 62.16 C 385.32 65.56 387.78 68.63 389.61 72.09 C 388.06 73.59 385.93 72.75 384.09 72.47 C 379.46 71.34 374.39 69.40 371.97 64.98 C 370.52 62.52 371.62 59.58 371.58 56.92 C 367.55 58.74 366.39 63.10 364.54 66.68 C 363.59 64.62 363.41 62.22 363.97 60.04 Z" />
<path fill="#ef6e7e" opacity="1.00" d=" M 156.56 60.76 C 158.01 58.81 160.66 58.10 162.92 59.00 C 164.58 61.33 165.08 64.24 165.59 67.00 C 166.24 65.93 166.74 64.78 167.22 63.62 C 169.51 62.32 172.21 60.40 174.46 62.88 C 169.82 67.96 166.77 75.26 169.27 82.04 C 171.41 87.52 165.64 90.93 161.40 92.66 C 161.42 91.19 161.47 89.72 161.51 88.25 C 162.25 88.83 162.99 89.40 163.74 89.98 C 165.43 87.08 166.21 83.78 165.41 80.47 C 162.66 81.11 159.90 80.82 157.35 79.64 C 159.96 77.35 162.11 74.56 163.40 71.32 C 162.42 68.70 161.84 65.92 160.55 63.43 C 159.29 62.44 157.88 61.66 156.56 60.76 Z" />
<path fill="#ef6e7e" opacity="1.00" d=" M 277.61 66.91 C 311.54 64.23 346.08 68.99 377.87 81.24 C 427.27 99.98 469.67 136.45 495.60 182.49 C 517.23 220.33 527.50 264.52 524.94 308.02 C 522.78 347.96 509.79 387.23 487.74 420.60 C 466.75 452.51 437.71 479.06 404.00 497.04 C 372.75 513.82 337.53 523.07 302.08 523.94 C 258.45 525.17 214.50 513.56 177.26 490.75 C 130.95 462.79 95.09 417.90 78.35 366.42 C 70.01 341.21 66.22 314.51 67.02 287.98 C 68.25 248.20 80.04 208.76 101.09 174.97 C 122.51 140.24 153.42 111.46 189.53 92.47 C 216.75 78.08 246.93 69.38 277.61 66.91 M 277.58 91.82 C 228.78 96.05 181.92 118.70 148.22 154.23 C 123.10 180.49 105.13 213.54 97.02 248.97 C 90.82 275.84 90.10 303.95 94.96 331.09 C 101.40 367.67 118.20 402.35 142.88 430.11 C 158.66 448.00 177.58 463.12 198.56 474.49 C 239.18 496.72 287.49 504.26 333.00 495.87 C 369.53 489.31 404.08 472.41 431.81 447.75 C 459.95 422.85 481.02 390.05 491.83 354.05 C 505.24 309.63 503.00 260.63 485.29 217.72 C 466.24 170.94 429.11 131.91 383.39 110.48 C 350.63 94.88 313.68 88.65 277.58 91.82 Z" />
<path fill="#ef6e7e" opacity="1.00" d=" M 169.94 79.61 C 173.35 76.21 178.32 74.99 183.02 75.09 C 185.60 75.28 186.90 77.75 188.08 79.72 C 182.02 81.57 175.90 77.31 169.94 79.61 Z" />
<path fill="#ef6e7e" opacity="1.00" d=" M 465.84 81.63 C 468.85 84.41 466.33 88.43 465.56 91.62 C 463.40 92.22 460.93 91.59 459.00 92.95 C 456.07 94.39 454.99 97.65 452.98 100.01 C 450.57 102.79 449.60 106.63 446.60 108.90 C 445.52 101.33 453.07 97.44 456.64 91.88 C 454.77 92.18 452.89 93.72 450.99 93.01 C 448.93 91.57 449.41 88.70 448.96 86.54 C 452.93 87.45 457.05 87.23 461.09 87.03 C 463.39 86.10 464.60 83.65 465.84 81.63 Z" />
<path fill="#ef6e7e" opacity="1.00" d=" M 127.73 90.70 C 129.46 88.84 132.25 89.59 134.17 90.72 C 133.48 93.93 133.76 97.19 134.51 100.36 C 136.78 98.75 138.00 95.51 141.02 95.19 C 142.62 95.21 145.53 95.46 145.02 97.75 C 142.12 99.67 138.59 100.60 136.07 103.08 C 133.86 105.35 132.50 108.24 130.87 110.90 C 129.75 109.98 128.62 109.08 127.47 108.21 C 128.63 106.95 129.65 105.59 130.67 104.22 C 130.44 102.32 130.22 100.43 130.00 98.53 C 127.53 99.02 125.04 99.34 122.55 99.62 C 124.34 96.68 126.40 93.90 127.73 90.70 Z" />
<path fill="#ef6e7e" opacity="1.00" d=" M 471.66 94.49 C 472.76 94.05 474.09 92.31 475.01 93.92 C 477.00 95.59 475.55 97.94 474.88 99.88 C 475.60 101.60 476.48 103.30 476.76 105.17 C 475.14 106.93 473.10 108.21 471.29 109.75 C 471.98 111.15 473.43 112.34 473.36 114.02 C 472.93 115.49 472.01 116.73 471.25 118.03 C 470.14 116.15 469.05 114.26 468.02 112.34 C 465.08 113.92 461.70 116.60 458.27 115.66 C 457.12 113.15 459.10 110.03 459.66 107.44 C 457.41 108.13 455.15 108.77 452.86 109.26 C 452.67 108.78 452.28 107.81 452.08 107.33 C 456.25 107.03 460.31 105.46 463.41 102.61 C 460.33 102.85 457.15 104.12 454.20 102.65 C 455.07 101.58 455.97 100.53 456.87 99.47 C 459.35 100.46 461.80 101.54 464.15 102.84 C 464.54 102.55 465.31 101.96 465.70 101.67 C 464.33 100.06 463.14 98.31 462.04 96.52 C 465.39 96.52 468.72 97.05 471.96 97.89 C 472.38 97.41 473.21 96.44 473.63 95.96 C 473.14 95.59 472.16 94.86 471.66 94.49 M 460.72 107.14 C 460.86 108.93 459.35 111.94 461.75 112.72 C 464.36 111.47 467.97 109.92 467.25 106.32 C 467.71 106.73 468.64 107.53 469.10 107.93 C 470.61 106.28 472.09 104.58 473.39 102.75 C 468.65 101.93 464.92 105.60 460.72 107.14 Z" />
<path fill="#ef6e7e" opacity="1.00" d=" M 109.99 96.49 C 112.87 94.92 117.82 92.76 119.50 97.00 C 118.13 99.49 115.82 101.28 113.57 102.92 C 113.73 101.93 114.06 99.95 114.22 98.96 C 112.94 98.07 109.62 98.71 109.99 96.49 Z" />
<path fill="#ef6e7e" opacity="1.00" d=" M 112.79 104.44 C 114.79 105.82 117.13 106.32 119.48 106.74 C 123.97 108.71 121.62 115.71 126.30 117.50 C 126.69 113.17 125.28 109.02 124.56 104.81 C 128.05 109.08 129.45 114.59 130.87 119.81 C 128.78 119.68 126.35 119.86 124.71 118.30 C 122.96 116.06 121.73 113.47 120.11 111.13 C 116.28 111.29 113.41 108.00 112.79 104.44 Z" />
<path fill="#ef6e7e" opacity="1.00" d=" M 320.42 112.56 C 330.96 109.43 342.48 107.63 353.22 110.84 C 360.30 112.89 366.51 118.44 368.21 125.77 C 371.21 138.91 366.57 152.49 359.35 163.43 C 350.46 176.93 338.29 187.85 325.63 197.71 C 304.01 214.19 280.27 227.65 256.11 240.00 C 257.06 248.95 258.47 258.42 264.23 265.68 C 269.91 273.25 279.71 276.85 288.99 276.20 C 307.47 275.00 324.80 266.63 339.13 255.21 C 359.16 239.41 378.26 222.44 396.54 204.65 C 394.54 217.37 388.63 229.03 381.87 239.83 C 368.27 260.94 350.76 279.45 331.01 294.91 C 321.45 302.25 311.18 308.74 300.19 313.72 C 303.26 320.15 310.10 323.05 314.30 328.53 C 317.51 332.47 319.84 337.02 321.79 341.68 C 335.83 336.69 349.95 331.90 363.93 326.73 C 374.73 322.66 385.84 318.92 395.47 312.41 C 399.45 309.79 402.56 305.53 407.53 304.72 C 422.09 301.99 437.62 305.73 449.59 314.39 C 455.33 318.51 460.37 324.62 460.86 331.92 C 461.56 339.76 457.56 346.96 453.62 353.42 C 450.74 357.87 445.95 362.69 440.15 361.42 C 427.44 359.34 414.77 357.00 402.14 354.47 C 397.51 353.44 392.56 352.90 388.62 350.03 C 398.83 346.38 409.01 341.38 416.24 333.08 C 419.45 329.52 417.06 324.50 414.91 321.05 C 413.03 318.29 410.82 314.48 407.02 314.61 C 404.53 314.39 404.47 317.26 403.76 318.90 C 403.39 320.60 402.07 321.79 400.72 322.75 C 382.90 335.19 362.93 344.73 346.96 359.68 C 363.35 371.47 379.67 383.36 396.48 394.53 C 404.32 399.80 412.31 404.87 420.70 409.25 C 426.71 412.76 433.31 417.06 435.47 424.07 C 436.96 429.06 433.99 434.21 429.59 436.54 C 423.52 439.79 416.63 440.99 409.98 442.53 C 384.72 447.82 358.75 449.76 332.98 448.37 C 308.63 446.72 283.65 442.97 262.06 430.86 C 250.05 424.19 238.51 415.53 231.55 403.43 C 224.32 390.38 221.48 375.51 219.06 360.96 C 218.70 358.35 217.07 355.43 214.09 355.41 C 209.62 357.18 206.95 361.44 204.16 365.12 C 197.29 375.45 189.89 386.28 188.93 399.04 C 186.95 412.93 186.28 426.96 185.08 440.93 C 184.33 445.57 183.48 451.55 178.58 453.63 C 175.54 454.54 172.87 452.16 171.20 449.91 C 168.39 445.71 166.46 441.01 164.33 436.45 C 160.08 426.64 155.66 416.84 152.67 406.55 C 151.03 401.33 151.40 395.30 154.75 390.82 C 160.11 383.19 164.62 374.87 171.18 368.15 C 177.06 361.88 181.40 354.40 186.36 347.42 C 187.35 345.92 189.24 344.25 190.89 345.95 C 191.41 350.50 188.47 354.44 188.15 358.89 C 188.00 361.27 187.60 364.12 189.76 365.76 C 198.32 358.39 203.72 346.85 214.87 342.83 C 222.11 340.28 228.90 345.27 233.74 350.13 C 246.04 363.55 247.72 382.96 258.74 397.20 C 262.75 402.77 268.90 406.27 275.09 408.91 C 293.32 416.66 313.45 418.09 333.04 417.78 C 343.89 417.45 354.82 417.25 365.53 415.28 C 367.90 414.91 370.14 413.91 371.92 412.29 C 368.81 405.72 364.04 400.16 359.63 394.45 C 351.63 384.69 342.83 375.62 333.66 366.97 C 328.58 370.72 323.66 374.82 319.93 379.96 C 318.18 382.22 316.92 384.87 314.81 386.84 C 312.70 388.72 309.59 388.57 307.03 387.88 C 293.01 383.59 280.57 373.53 274.81 359.88 C 274.34 357.85 273.84 355.19 275.60 353.64 C 279.48 349.87 279.64 344.10 279.74 339.04 C 279.64 333.84 280.10 328.43 278.33 323.44 C 277.85 322.05 276.07 322.28 274.97 321.80 C 274.55 321.06 274.15 320.33 273.75 319.60 C 261.66 319.20 248.98 318.07 238.41 311.65 C 228.74 305.98 222.10 296.36 217.86 286.18 C 213.08 275.08 210.79 263.14 208.80 251.29 C 190.92 254.81 172.97 257.96 155.02 261.08 C 148.64 262.08 142.28 263.35 135.83 263.87 C 138.29 261.71 141.67 261.37 144.65 260.35 C 163.06 254.65 181.83 249.95 199.73 242.74 C 203.05 241.09 207.51 239.92 208.66 235.92 C 211.70 227.74 212.97 219.04 215.81 210.81 C 219.98 198.66 226.90 187.67 234.62 177.49 C 246.55 161.91 260.52 147.83 276.36 136.23 C 289.88 126.43 304.38 117.53 320.42 112.56 M 310.17 145.24 C 300.93 151.04 292.89 158.53 285.24 166.25 C 269.89 181.17 258.35 200.85 256.64 222.51 C 272.29 214.60 287.38 205.25 300.27 193.28 C 309.26 185.08 316.57 175.22 322.98 164.93 C 326.11 159.41 329.52 153.56 329.62 147.03 C 329.85 144.19 328.13 140.73 324.97 140.56 C 319.62 140.00 314.65 142.66 310.17 145.24 Z" />
<path fill="#ef6e7e" opacity="1.00" d=" M 88.12 122.95 C 87.70 120.51 88.58 116.34 91.94 117.53 C 96.49 119.11 93.26 123.84 92.72 127.01 C 94.60 127.37 96.12 128.54 97.51 129.81 C 97.20 128.97 97.01 128.09 96.85 127.22 C 98.70 124.75 99.12 120.28 102.89 120.07 C 105.68 120.32 102.82 122.87 102.39 124.17 C 101.25 125.38 103.19 126.38 103.86 127.19 C 108.72 131.04 113.50 135.01 117.77 139.52 C 117.43 139.59 116.75 139.75 116.42 139.83 C 110.78 136.29 105.64 132.05 100.51 127.83 C 100.34 129.58 100.10 131.33 100.14 133.10 C 101.80 135.31 104.77 136.51 105.49 139.39 C 103.40 138.77 101.41 137.79 99.23 137.49 C 99.47 137.13 99.95 136.40 100.18 136.04 C 99.63 134.18 97.70 136.11 96.72 136.43 C 97.38 133.30 95.62 131.18 93.16 129.58 C 92.04 129.96 90.92 130.35 89.81 130.73 C 90.68 131.97 91.63 133.18 93.05 133.83 C 95.99 139.10 101.97 141.35 106.21 145.35 C 102.22 145.79 98.06 146.14 94.10 145.98 C 91.97 142.61 94.27 137.37 90.47 135.08 C 90.65 137.40 91.51 139.88 90.18 142.03 C 93.27 146.01 97.02 149.36 100.49 152.98 C 97.90 153.64 94.71 154.17 92.59 152.15 C 90.89 150.83 95.63 149.58 95.50 151.56 C 93.38 147.80 90.95 144.01 87.27 141.61 C 87.49 138.42 87.54 135.23 87.33 132.05 C 84.97 130.01 83.10 126.63 79.53 126.89 C 80.89 122.63 85.73 126.03 87.21 128.47 L 87.84 128.31 C 88.56 128.14 90.01 127.79 90.73 127.61 C 90.92 125.31 91.12 123.00 90.95 120.69 C 89.32 119.17 88.99 122.12 88.12 122.95 M 96.52 144.67 C 97.78 144.15 99.08 143.69 100.38 143.27 C 98.74 141.89 97.07 140.55 95.33 139.29 C 95.67 141.10 96.09 142.88 96.52 144.67 Z" />
<path fill="#ef6e7e" opacity="1.00" d=" M 55.40 123.19 C 53.96 122.41 53.92 121.58 55.27 120.71 C 55.57 121.01 56.17 121.61 56.48 121.92 C 56.21 122.23 55.67 122.87 55.40 123.19 Z" />
<path fill="#ef6e7e" opacity="1.00" d=" M 497.02 123.00 C 501.57 121.77 506.33 122.20 510.90 121.19 C 511.15 123.15 511.35 125.18 510.23 126.93 C 509.29 126.67 507.42 126.13 506.49 125.87 C 508.69 132.22 505.39 138.62 506.27 145.05 C 506.66 147.89 507.06 150.78 506.16 153.58 C 503.72 151.77 501.58 149.11 501.45 145.96 C 501.61 141.46 503.66 137.36 504.74 133.05 C 505.39 130.34 503.51 128.00 502.44 125.68 C 500.29 126.00 498.14 126.26 496.02 126.69 C 496.56 128.84 499.32 129.45 501.00 130.58 C 501.42 132.50 502.13 134.83 500.10 136.11 C 496.69 134.12 492.98 132.62 489.75 130.33 C 489.87 130.05 490.12 129.50 490.24 129.23 C 491.74 128.91 493.20 129.61 494.68 129.81 C 494.72 129.17 494.80 127.89 494.84 127.25 C 492.83 127.52 490.67 127.26 488.78 128.08 C 485.56 128.25 479.36 128.99 478.88 124.50 C 484.97 124.73 491.08 124.51 497.02 123.00 Z" />
<path fill="#ef6e7e" opacity="1.00" d=" M 484.87 128.51 C 488.50 131.60 491.94 135.48 496.88 136.28 C 496.91 138.08 497.09 140.03 495.70 141.40 C 494.23 140.76 492.74 140.21 491.21 139.75 C 489.40 139.70 487.58 139.53 485.78 139.37 C 486.73 140.72 487.63 142.82 489.48 142.93 C 489.91 142.17 490.76 140.65 491.19 139.90 C 491.92 142.12 492.93 144.44 492.42 146.83 C 491.16 148.65 489.02 149.59 487.02 150.35 C 484.96 149.35 487.40 146.98 487.80 145.48 C 485.03 142.65 481.49 140.93 477.92 139.37 C 478.75 137.66 479.68 136.00 480.73 134.41 C 482.50 135.17 484.35 135.74 486.25 136.11 C 484.93 133.77 483.90 131.24 484.87 128.51 Z" />
<path fill="#ef6e7e" opacity="1.00" d=" M 74.34 134.32 C 77.28 132.70 80.94 131.20 83.84 133.80 C 82.29 136.29 80.70 138.74 79.18 141.25 C 81.94 142.27 85.30 142.27 87.40 144.61 C 89.15 146.41 90.37 148.63 91.82 150.66 C 89.23 151.07 88.04 148.03 85.95 147.03 C 83.70 146.08 80.96 145.55 79.69 143.20 C 78.16 141.30 78.86 138.81 78.86 136.60 C 77.40 135.74 75.85 135.07 74.34 134.32 Z" />
<path fill="#ef6e7e" opacity="1.00" d=" M 68.81 448.78 C 74.98 444.06 81.32 439.57 87.54 434.92 C 90.76 439.31 94.20 443.53 97.43 447.91 C 97.06 448.41 96.33 449.40 95.97 449.89 C 92.87 446.24 90.12 442.31 87.13 438.57 C 85.19 440.10 83.21 441.60 81.22 443.06 C 83.82 446.47 86.42 449.89 89.18 453.18 C 88.66 453.61 87.61 454.45 87.09 454.88 C 84.51 451.38 81.84 447.94 79.12 444.54 C 76.96 446.19 74.77 447.79 72.58 449.39 C 75.45 453.24 78.38 457.05 81.37 460.81 C 80.82 461.18 79.71 461.91 79.16 462.28 C 75.86 457.67 72.42 453.15 68.81 448.78 Z" />
<path fill="#ef6e7e" opacity="1.00" d=" M 501.79 442.45 C 501.21 438.89 503.55 435.19 507.07 434.32 C 512.19 435.49 515.98 439.57 520.54 441.98 C 520.13 442.54 519.32 443.66 518.91 444.22 C 515.48 441.95 512.21 439.38 508.52 437.55 C 504.82 435.99 502.07 441.73 504.68 444.25 C 507.54 446.92 511.07 448.72 514.29 450.91 C 513.94 451.48 513.24 452.63 512.89 453.21 C 508.20 449.91 503.39 446.80 498.53 443.77 C 499.38 442.67 500.46 442.23 501.79 442.45 Z" />
<path fill="#ef6e7e" opacity="1.00" d=" M 495.43 450.53 C 499.95 448.99 504.58 452.43 506.71 456.22 C 509.64 461.71 502.80 469.03 497.09 466.57 C 494.11 465.35 491.39 463.06 490.22 460.01 C 489.03 456.04 491.75 451.92 495.43 450.53 M 495.21 453.20 C 492.74 454.28 491.65 457.58 493.14 459.87 C 494.68 462.26 497.22 464.14 500.09 464.53 C 503.44 464.38 506.02 460.60 504.30 457.53 C 502.49 454.62 498.80 451.64 495.21 453.20 Z" />
<path fill="#ef6e7e" opacity="1.00" d=" M 82.92 466.55 C 88.99 461.70 95.15 456.95 101.16 452.02 C 101.53 452.57 102.26 453.67 102.63 454.22 C 96.71 459.13 90.49 463.68 84.58 468.61 C 84.02 467.92 83.47 467.24 82.92 466.55 Z" />
<path fill="#ef6e7e" opacity="1.00" d=" M 285.47 458.67 C 288.01 457.30 291.27 459.30 291.67 461.99 C 291.08 464.16 288.76 465.28 287.07 466.53 C 287.64 465.53 288.78 463.53 289.36 462.53 C 283.97 464.83 277.08 467.82 276.32 474.48 C 280.80 474.37 284.44 471.52 287.49 468.53 C 288.73 467.58 289.92 465.90 291.69 466.37 C 292.15 467.84 290.88 468.99 290.29 470.21 C 287.01 475.27 284.14 480.64 280.35 485.35 C 279.19 486.90 277.48 487.88 275.61 488.32 C 276.12 486.99 276.16 485.35 277.25 484.33 C 280.95 481.10 283.46 476.80 285.95 472.62 C 282.93 474.08 280.50 477.17 276.99 477.31 C 274.38 475.98 272.77 472.91 272.66 470.05 C 274.43 464.28 280.11 460.71 285.47 458.67 Z" />
<path fill="#ef6e7e" opacity="1.00" d=" M 305.46 459.68 C 309.58 458.58 313.97 458.26 318.15 459.25 C 315.60 464.89 310.86 468.92 306.48 473.10 C 307.50 475.57 309.19 478.11 308.39 480.90 C 307.53 486.36 299.49 490.25 295.54 485.54 C 294.70 480.63 299.79 477.31 302.54 473.88 C 300.94 471.34 298.67 468.55 299.54 465.34 C 300.09 462.40 302.74 460.47 305.46 459.68 M 303.21 466.02 C 302.75 468.05 304.02 469.82 304.84 471.56 C 307.90 469.05 310.97 466.55 313.61 463.59 C 310.14 463.66 305.47 462.61 303.21 466.02 M 303.65 475.96 C 301.26 478.46 299.18 481.24 297.38 484.19 C 298.04 484.43 299.35 484.91 300.00 485.15 C 304.63 485.65 307.32 478.20 303.65 475.96 Z" />
<path fill="#ef6e7e" opacity="1.00" d=" M 477.52 460.48 C 477.97 460.01 478.86 459.07 479.30 458.61 C 480.08 459.29 480.88 460.00 481.67 460.71 C 481.09 461.38 480.52 462.06 479.95 462.74 C 479.14 461.98 478.33 461.23 477.52 460.48 Z" />
<path fill="#ef6e7e" opacity="1.00" d=" M 257.85 466.90 C 259.44 463.25 263.30 461.56 266.34 459.33 C 266.76 460.87 267.68 462.43 267.22 464.08 C 264.52 471.97 258.85 479.31 259.52 488.00 C 258.12 487.11 256.74 486.17 255.39 485.23 C 255.73 477.48 259.88 470.71 263.56 464.13 C 261.65 465.05 259.81 466.11 257.85 466.90 Z" />
<path fill="#ef6e7e" opacity="1.00" d=" M 320.18 471.08 C 324.85 466.27 330.80 462.70 337.08 460.42 C 337.28 461.95 337.48 463.48 337.68 465.02 C 335.63 468.93 333.01 472.51 330.88 476.38 C 332.14 476.17 334.66 475.76 335.92 475.56 C 335.58 477.17 334.84 478.63 334.01 480.05 C 332.35 480.36 330.70 480.69 329.05 481.04 C 328.69 482.78 328.27 484.57 328.97 486.31 C 327.55 487.22 326.11 488.11 324.67 489.00 C 324.19 486.57 324.49 484.12 324.90 481.71 C 322.23 481.75 317.86 483.49 316.84 479.88 C 315.26 476.54 318.34 473.55 320.18 471.08 M 318.99 477.73 C 321.60 477.54 324.22 477.33 326.84 477.11 C 329.02 471.75 333.55 467.91 336.23 462.90 C 329.44 466.41 322.82 470.93 318.99 477.73 Z" />
<path fill="#ef6e7e" opacity="1.00" d=" M 482.33 464.82 C 482.97 464.14 483.61 463.47 484.27 462.81 C 488.19 466.68 492.55 470.08 496.53 473.89 C 496.18 474.44 495.49 475.53 495.14 476.08 C 490.98 472.21 486.64 468.53 482.33 464.82 Z" />
<path fill="#ef6e7e" opacity="1.00" d=" M 90.60 473.96 C 91.03 467.17 100.72 461.30 105.88 467.24 C 109.75 470.78 107.58 476.41 104.13 479.35 C 101.39 476.06 98.37 473.01 95.61 469.73 C 93.28 471.74 92.17 475.75 94.91 477.93 C 96.31 479.59 98.52 478.91 100.37 478.80 C 100.75 479.41 101.51 480.65 101.90 481.26 C 96.81 483.33 91.04 479.22 90.60 473.96 M 97.22 468.43 C 99.47 470.93 101.79 473.37 104.16 475.76 C 105.33 473.62 106.43 470.63 104.22 468.73 C 102.42 466.55 99.38 467.24 97.22 468.43 Z" />
<path fill="#ef6e7e" opacity="1.00" d=" M 472.53 466.69 C 474.12 467.91 475.64 469.24 477.11 470.62 C 477.62 469.98 478.65 468.70 479.16 468.06 C 480.81 469.30 479.66 470.69 478.96 472.06 C 481.78 474.84 484.85 477.39 487.99 479.83 C 488.50 479.33 489.52 478.34 490.03 477.84 C 490.52 478.20 491.51 478.91 492.00 479.26 C 490.65 480.62 489.38 482.98 487.10 482.35 C 483.38 479.93 480.40 476.59 476.95 473.84 C 476.48 474.23 475.53 475.02 475.06 475.42 C 473.93 474.40 474.56 473.19 475.15 472.10 C 474.18 471.28 473.21 470.47 472.25 469.67 C 472.32 468.92 472.46 467.43 472.53 466.69 Z" />
<path fill="#ef6e7e" opacity="1.00" d=" M 464.16 489.35 C 461.41 484.10 467.43 477.35 472.81 478.27 C 476.85 481.06 479.43 485.56 483.72 488.09 C 483.21 488.52 482.19 489.36 481.68 489.79 C 481.26 489.52 480.40 488.99 479.98 488.72 C 479.12 491.56 477.88 494.65 474.99 495.95 C 471.65 498.31 466.76 493.99 468.42 490.38 C 469.89 487.40 472.34 485.07 474.15 482.31 C 471.56 479.80 467.66 480.93 466.26 484.08 C 466.23 486.18 466.64 488.55 464.16 489.35 M 470.82 491.96 C 472.02 495.23 476.18 493.62 477.18 491.08 C 478.77 488.66 477.14 485.97 475.32 484.26 C 473.89 486.81 470.97 488.96 470.82 491.96 Z" />
<path fill="#ef6e7e" opacity="1.00" d=" M 110.35 479.33 C 116.01 476.05 123.55 483.13 120.31 489.01 C 117.81 488.33 118.38 486.02 118.33 484.04 C 117.46 480.71 112.76 480.15 110.47 482.36 C 108.11 484.29 105.50 487.53 107.15 490.71 C 108.57 493.37 112.12 493.42 114.31 491.71 C 114.89 492.44 115.47 493.18 116.05 493.92 C 112.44 496.26 107.46 495.52 105.24 491.66 C 102.03 487.05 106.24 481.58 110.35 479.33 Z" />
<path fill="#ef6e7e" opacity="1.00" d=" M 451.11 486.00 C 451.74 485.28 452.40 484.58 453.08 483.91 C 453.34 484.99 455.50 486.34 454.30 487.28 C 453.20 489.01 451.63 487.14 451.11 486.00 Z" />
<path fill="#ef6e7e" opacity="1.00" d=" M 127.19 487.84 C 128.68 486.12 130.25 484.29 132.84 484.96 C 131.69 486.66 130.42 488.28 129.13 489.88 C 130.54 490.79 131.29 492.00 130.37 493.61 C 129.72 493.03 128.42 491.87 127.77 491.29 C 125.37 494.50 121.88 497.15 120.34 500.84 C 121.72 502.12 121.84 503.53 120.49 504.89 C 119.35 503.41 117.00 502.31 117.28 500.13 C 119.53 496.27 122.85 493.16 125.79 489.84 C 125.29 489.36 124.30 488.40 123.80 487.93 C 124.88 487.14 126.01 487.11 127.19 487.84 Z" />
<path fill="#ef6e7e" opacity="1.00" d=" M 455.05 490.79 C 455.80 490.21 456.56 489.65 457.33 489.10 C 460.75 493.42 464.42 497.53 468.04 501.69 C 467.39 502.29 466.74 502.90 466.10 503.50 C 462.42 499.26 458.87 494.90 455.05 490.79 Z" />
<path fill="#ef6e7e" opacity="1.00" d=" M 124.21 507.26 C 127.71 503.13 130.78 498.65 134.24 494.49 C 135.87 494.80 136.24 495.83 135.33 497.57 C 137.74 496.08 139.72 497.85 141.47 499.37 C 141.06 499.81 140.24 500.69 139.84 501.12 C 138.10 500.57 136.51 498.20 134.59 499.47 C 130.96 501.89 128.87 505.95 126.12 509.25 C 125.65 508.75 124.69 507.75 124.21 507.26 Z" />
<path fill="#ef6e7e" opacity="1.00" d=" M 147.14 496.06 C 147.92 496.62 148.69 497.19 149.47 497.77 C 149.02 498.37 148.11 499.57 147.66 500.17 C 146.91 499.73 146.16 499.29 145.41 498.86 C 145.99 497.93 146.56 496.99 147.14 496.06 Z" />
<path fill="#ef6e7e" opacity="1.00" d=" M 444.42 505.95 C 441.56 501.38 446.16 495.57 451.00 495.39 C 453.03 495.39 456.38 496.71 453.94 498.91 C 452.20 498.48 450.21 497.14 448.52 498.37 C 442.43 502.23 450.28 513.11 456.02 509.21 C 458.29 507.90 457.82 505.12 457.19 503.04 C 457.96 502.61 458.73 502.20 459.52 501.80 C 461.33 505.58 459.62 510.13 455.76 511.76 C 451.10 514.30 446.32 510.01 444.42 505.95 Z" />
<path fill="#ef6e7e" opacity="1.00" d=" M 134.88 514.03 C 137.89 509.91 140.53 505.52 143.72 501.55 C 144.26 501.88 145.34 502.53 145.87 502.86 C 142.45 507.35 139.68 512.31 136.06 516.65 C 134.90 516.11 133.65 515.22 134.88 514.03 Z" />
<path fill="#ef6e7e" opacity="1.00" d=" M 432.36 507.33 C 437.64 504.25 443.20 509.38 444.49 514.38 C 445.95 519.37 440.77 524.14 435.97 523.76 C 431.98 523.24 429.25 519.57 428.02 516.00 C 426.76 512.54 429.22 508.76 432.36 507.33 M 433.29 509.31 C 428.41 511.62 430.87 518.20 434.51 520.48 C 437.21 522.54 441.83 520.56 441.87 517.07 C 442.08 512.83 437.90 507.46 433.29 509.31 Z" />
<path fill="#ef6e7e" opacity="1.00" d=" M 150.39 508.48 C 155.25 506.95 161.26 511.65 159.74 516.92 C 155.83 517.95 158.26 511.74 154.95 510.99 C 150.41 509.01 146.91 514.09 146.20 517.97 C 145.38 521.64 150.31 524.68 153.12 522.05 C 154.27 520.84 155.42 521.36 156.42 522.52 C 153.83 526.27 148.08 526.01 145.31 522.60 C 140.98 517.95 145.34 510.49 150.39 508.48 Z" />
<path fill="#ef6e7e" opacity="1.00" d=" M 412.91 524.84 C 410.22 521.08 414.60 517.22 418.10 516.39 C 420.34 515.26 422.39 516.93 424.20 518.07 C 422.90 519.31 421.49 519.55 419.98 518.79 C 417.45 517.77 415.38 520.23 414.01 521.99 C 414.51 522.51 415.52 523.55 416.02 524.07 C 418.99 523.43 421.91 522.44 424.96 522.28 C 427.71 522.61 429.61 526.00 428.39 528.52 C 427.10 531.21 424.27 532.77 421.50 533.51 C 419.41 534.04 417.64 532.41 415.87 531.60 C 416.48 530.86 417.10 530.13 417.72 529.41 C 420.62 533.57 428.54 529.38 425.18 524.81 C 421.20 525.07 416.10 528.60 412.91 524.84 Z" />
<path fill="#ef6e7e" opacity="1.00" d=" M 162.17 519.09 C 166.36 514.87 174.14 517.90 175.77 523.10 C 174.49 528.08 170.78 532.09 169.12 536.99 C 168.07 535.98 167.47 534.76 167.31 533.34 C 163.40 534.21 158.56 532.20 157.55 528.07 C 157.70 525.39 160.22 522.77 163.03 523.25 C 166.18 523.72 169.06 525.23 172.09 526.17 C 173.26 523.76 172.81 520.84 170.00 519.91 C 167.44 518.02 164.47 521.77 162.17 519.09 M 161.38 526.34 C 159.10 528.72 162.45 531.61 164.95 531.65 C 167.78 532.38 169.38 529.75 170.83 527.86 C 167.73 527.46 164.38 524.66 161.38 526.34 Z" />
<path fill="#ef6e7e" opacity="1.00" d=" M 174.88 539.12 C 178.48 532.28 181.58 525.19 185.41 518.49 C 185.98 518.78 187.12 519.35 187.69 519.64 C 183.96 526.35 180.95 533.44 177.18 540.13 C 176.61 539.88 175.46 539.37 174.88 539.12 Z" />
<path fill="#ef6e7e" opacity="1.00" d=" M 396.75 527.88 C 398.97 524.65 404.33 522.34 407.54 525.51 C 408.62 527.45 405.43 527.61 404.39 526.73 C 402.00 525.41 397.18 528.28 398.93 531.14 C 403.04 532.67 408.71 527.93 411.76 532.42 C 414.40 536.47 409.63 540.39 405.97 541.25 C 403.34 542.37 401.08 540.26 399.08 538.89 C 401.48 535.87 404.09 540.45 406.90 538.64 C 409.13 538.07 411.20 535.13 408.96 533.28 C 405.94 533.10 403.05 534.30 400.05 534.24 C 397.06 534.22 394.91 530.34 396.75 527.88 Z" />
<path fill="#ef6e7e" opacity="1.00" d=" M 378.93 527.10 C 379.91 526.70 380.89 526.31 381.88 525.93 C 387.66 531.97 393.14 538.32 399.07 544.23 C 398.27 544.54 396.66 545.16 395.86 545.47 C 394.21 543.55 392.55 541.65 390.92 539.73 C 387.73 540.82 384.53 541.89 381.41 543.16 C 381.10 546.28 383.00 551.24 378.42 551.86 C 378.72 543.61 378.54 535.35 378.93 527.10 M 381.39 529.23 C 381.52 533.02 381.55 536.81 381.50 540.60 C 383.98 539.66 386.48 538.74 389.01 537.90 C 386.53 534.95 384.10 531.97 381.39 529.23 Z" />
<path fill="#ef6e7e" opacity="1.00" d=" M 210.70 528.85 C 211.73 529.22 212.76 529.59 213.78 529.98 C 214.28 537.24 214.40 544.52 214.37 551.80 C 219.24 546.14 223.48 539.91 228.65 534.55 C 229.28 534.79 230.54 535.27 231.17 535.51 C 225.61 541.69 220.45 548.21 215.06 554.54 C 214.38 554.31 213.02 553.84 212.33 553.60 C 211.46 545.37 211.52 537.08 210.70 528.85 Z" />
<path fill="#ef6e7e" opacity="1.00" d=" M 250.03 538.65 C 250.69 538.77 252.00 539.00 252.66 539.12 C 251.64 546.65 250.37 554.15 249.03 561.63 C 248.37 561.64 247.04 561.67 246.38 561.68 C 247.56 554.00 248.91 546.34 250.03 538.65 Z" />
<path fill="#ef6e7e" opacity="1.00" d=" M 232.52 542.59 C 237.02 541.03 242.52 544.06 243.17 548.89 C 243.31 553.07 241.51 558.32 236.94 559.35 C 232.26 560.72 226.81 557.00 226.87 552.00 C 227.12 548.28 228.62 543.84 232.52 542.59 M 232.38 545.55 C 230.30 547.39 229.69 550.46 229.81 553.13 C 230.16 555.99 233.17 557.96 235.94 557.17 C 239.59 556.00 240.75 551.37 240.06 548.01 C 239.30 544.75 234.88 543.39 232.38 545.55 Z" />
<path fill="#ef6e7e" opacity="1.00" d=" M 345.90 545.20 C 347.42 543.04 349.43 541.31 352.27 541.99 C 352.15 542.71 351.93 544.16 351.81 544.88 C 351.03 544.85 349.46 544.79 348.68 544.76 C 345.43 549.14 348.92 554.59 349.40 559.33 C 348.50 559.54 347.60 559.77 346.71 559.99 C 345.65 554.77 344.40 549.60 343.37 544.38 C 343.86 543.99 344.84 543.21 345.33 542.81 C 345.47 543.41 345.76 544.61 345.90 545.20 Z" />
<path fill="#ef6e7e" opacity="1.00" d=" M 296.08 544.36 C 296.92 543.76 297.77 543.18 298.64 542.63 C 298.66 544.55 298.66 546.48 298.66 548.41 C 299.50 548.46 301.19 548.54 302.03 548.58 C 301.61 550.13 300.51 550.88 298.76 550.85 C 298.78 554.73 298.53 558.65 299.22 562.50 C 301.13 562.42 302.40 563.24 302.60 565.28 C 300.56 565.02 297.69 565.86 296.62 563.53 C 295.67 559.38 296.44 555.06 295.80 550.87 C 295.31 550.75 294.33 550.50 293.83 550.38 L 293.71 548.79 C 296.75 549.22 295.77 546.25 296.08 544.36 Z" />
<path fill="#ef6e7e" opacity="1.00" d=" M 324.73 551.01 C 325.87 546.15 332.41 543.56 336.44 546.60 C 338.78 548.09 339.50 550.94 340.48 553.35 C 336.09 554.18 331.66 554.74 327.27 555.52 C 328.22 557.95 329.81 560.87 332.91 560.48 C 335.61 560.78 337.04 558.34 337.93 556.22 C 338.90 556.26 339.87 556.32 340.84 556.38 C 339.66 559.76 336.82 562.69 333.03 562.66 C 326.97 563.43 323.18 556.23 324.73 551.01 M 326.97 553.08 C 330.39 552.72 333.80 552.31 337.16 551.59 C 336.01 549.31 333.94 546.62 331.02 547.72 C 328.40 548.17 327.47 550.83 326.97 553.08 Z" />
<path fill="#ef6e7e" opacity="1.00" d=" M 257.62 546.38 C 258.54 546.46 259.46 546.56 260.38 546.67 C 259.89 550.82 259.06 554.96 259.11 559.15 C 259.74 563.06 266.06 562.38 266.92 558.92 C 267.81 555.19 268.00 551.34 268.58 547.56 C 269.49 547.71 270.40 547.87 271.31 548.04 C 270.45 553.37 270.09 558.77 269.10 564.08 C 267.34 564.89 266.58 564.23 266.81 562.10 C 263.79 564.83 258.23 564.65 256.51 560.60 C 255.77 555.87 257.38 551.11 257.62 546.38 Z" />
<path fill="#ef6e7e" opacity="1.00" d=" M 280.90 548.84 C 283.82 547.11 288.40 548.47 289.26 551.97 C 289.82 556.37 289.30 560.83 289.18 565.25 C 288.50 565.24 287.13 565.23 286.44 565.22 C 286.50 560.98 287.09 556.70 286.45 552.50 C 285.14 549.02 279.33 549.99 278.72 553.48 C 278.10 557.16 278.71 560.94 278.11 564.63 C 277.46 564.80 276.16 565.12 275.52 565.28 C 275.66 559.56 275.65 553.85 275.78 548.14 C 276.20 548.31 277.04 548.66 277.46 548.84 C 278.28 551.24 279.71 549.19 280.90 548.84 Z" />
<path fill="#ef6e7e" opacity="1.00" d=" M 308.62 563.34 C 302.80 559.34 304.39 548.04 312.03 547.35 C 317.22 546.51 320.89 551.45 320.90 556.20 C 316.53 556.43 312.14 556.60 307.80 557.14 C 308.46 560.01 310.55 563.18 313.97 562.47 C 317.24 562.67 317.48 557.60 321.07 558.67 C 319.96 564.07 312.95 566.49 308.62 563.34 M 307.76 554.73 C 311.14 554.54 314.52 554.30 317.90 554.12 C 317.19 551.88 315.70 549.34 312.97 549.53 C 309.99 549.35 308.32 552.19 307.76 554.73 Z" />
</g>
<g id="#a04a5342">
<path fill="#a04a53" opacity="0.26" d=" M 88.12 122.95 C 88.99 122.12 89.32 119.17 90.95 120.69 C 91.12 123.00 90.92 125.31 90.73 127.61 C 90.01 127.79 88.56 128.14 87.84 128.31 C 88.50 128.00 89.83 127.38 90.49 127.07 C 89.72 125.69 88.94 124.30 88.12 122.95 Z" />
</g>
</svg>
